<svg id="outline" height="512" viewBox="0 0 512 512" width="512" xmlns="http://www.w3.org/2000/svg"><path d="m200 248h16v16h-16z"/><path d="m232 248h16v16h-16z"/><path d="m264 248h16v16h-16z"/><path d="m296 248h16v16h-16z"/><path d="m200 216h16v16h-16z"/><path d="m232 216h16v16h-16z"/><path d="m264 216h16v16h-16z"/><path d="m296 216h16v16h-16z"/><path d="m200 184h16v16h-16z"/><path d="m232 184h16v16h-16z"/><path d="m264 184h16v16h-16z"/><path d="m296 184h16v16h-16z"/><path d="m200 152h16v16h-16z"/><path d="m232 152h16v16h-16z"/><path d="m264 152h16v16h-16z"/><path d="m296 152h16v16h-16z"/><path d="m200 280h16v16h-16z"/><path d="m232 280h16v16h-16z"/><path d="m264 280h16v16h-16z"/><path d="m296 280h16v16h-16z"/><path d="m200 312h16v16h-16z"/><path d="m232 312h16v16h-16z"/><path d="m264 312h16v16h-16z"/><path d="m296 312h16v16h-16z"/><path d="m24 432h96a8.00008 8.00008 0 0 0 8-8v-120a7.95327 7.95327 0 0 0 -1.60669-4.79443l.00708-.00537-24-32a8.00229 8.00229 0 0 0 -6.40039-3.2002h-16v-64h16v-16h-24a8.00008 8.00008 0 0 0 -8 8v72h-16a8.00229 8.00229 0 0 0 -6.40039 3.2002l-24 32 .00708.00537a7.95327 7.95327 0 0 0 -1.60669 4.79443v120a8.00008 8.00008 0 0 0 8 8zm88-16h-32v-24h-16v24h-32v-104h80zm-60-136h40l12 16h-64z"/><path d="m48 328h16v16h-16z"/><path d="m80 328h16v16h-16z"/><path d="m48 360h16v16h-16z"/><path d="m80 360h16v16h-16z"/><path d="m416 328h16v16h-16z"/><path d="m448 328h16v16h-16z"/><path d="m416 360h16v16h-16z"/><path d="m448 360h16v16h-16z"/><path d="m494.40039 299.2002-24-32a8.00229 8.00229 0 0 0 -6.40039-3.2002h-16v-72a8.00008 8.00008 0 0 0 -8-8h-24v16h16v64h-16a8.00229 8.00229 0 0 0 -6.40039 3.2002l-24 32 .00708.00537a7.95327 7.95327 0 0 0 -1.60669 4.79443v120a8.00008 8.00008 0 0 0 8 8h96a8.00008 8.00008 0 0 0 8-8v-120a7.95327 7.95327 0 0 0 -1.60669-4.79443zm-74.40039-19.2002h40l12 16h-64zm60 136h-32v-24h-16v24h-32v-104h80z"/><path d="m146.34277 394.34326a8.00035 8.00035 0 0 0 -2.34277 5.65674v24a8.00008 8.00008 0 0 0 8 8h208a8.00008 8.00008 0 0 0 8-8v-24a8.00035 8.00035 0 0 0 -2.34277-5.65674l-13.65723-13.65726v-180.686h16v-16h-16v-64a8.00008 8.00008 0 0 0 -8-8h-16v-24a8.00008 8.00008 0 0 0 -8-8h-128a8.00008 8.00008 0 0 0 -8 8v24h-16a8.00008 8.00008 0 0 0 -8 8v64h-16v16h16v180.686zm205.65723 21.65674h-192v-12.686l11.31348-11.314h169.373l11.31352 11.314zm-152-320h112v16h-112zm-24 32h160v248h-24v-32h-16v32h-16v-32h-16v32h-16v-32h-16v32h-16v-32h-16v32h-24z"/><path d="m112 184h16v16h-16z"/><path d="m384 184h16v16h-16z"/></svg>