<?xml version="1.0" encoding="utf-8"?>
<!-- Generator: Adobe Illustrator 16.0.0, SVG Export Plug-In . SVG Version: 6.00 Build 0)  -->
<!DOCTYPE svg PUBLIC "-//W3C//DTD SVG 1.1//EN" "http://www.w3.org/Graphics/SVG/1.1/DTD/svg11.dtd">
<svg version="1.1" id="Layer_1" xmlns:figma="http://www.figma.com/figma/ns"
	 xmlns="http://www.w3.org/2000/svg" xmlns:xlink="http://www.w3.org/1999/xlink" x="0px" y="0px" width="1814.453px"
	 height="2000px" viewBox="0 0 1814.453 460" enable-background="new 0 0 1814.453 460" xml:space="preserve">
<title>Logo</title>
<g transform="translate(-1470)" figma:type="canvas" display="none">
	<g transform="translate(1470)" figma:type="vector" display="inline">
		<g>
			<path id="b" fill="#FF4400" d="M200.235,378.387c2.493,2.845,0.467,7.302-3.312,7.302h-52.025c-2.51,0-4.897-1.066-6.562-2.934
				l-82.912-92.706v91.244c0,2.431-1.973,4.404-4.404,4.404H4.404c-2.431,0-4.404-1.974-4.404-4.404V178.725
				c0-2.431,1.973-4.404,4.404-4.404h46.617c2.431,0,4.404,1.973,4.404,4.404v86.444l80.508-87.985
				c1.673-1.823,4.025-2.862,6.5-2.862h50.748c3.849,0,5.848,4.588,3.224,7.407l-86.761,93.032l90.601,103.636L200.235,378.387z"/>
		</g>
		<g>
			<path id="c" fill="#FF4400" d="M405.059,385.688c-1.753,0-3.347-1.04-4.043-2.651l-17.826-41.121h-93.975l-17.826,41.121
				c-0.696,1.611-2.281,2.651-4.043,2.651h-45.904c-3.223,0-5.355-3.356-3.99-6.271l94.961-202.568
				c0.722-1.55,2.281-2.537,3.99-2.537h38.382c1.708,0,3.259,0.986,3.99,2.528l95.251,202.568c1.374,2.924-0.758,6.28-3.981,6.28
				H405.059L405.059,385.688z M306.989,300.539h58.437l-29.214-67.764l-29.214,67.764H306.989z"/>
		</g>
		<g>
			<path id="d" fill="#FF4400" d="M489.027,385.688c-2.431,0-4.403-1.974-4.403-4.404V178.716c0-2.431,1.973-4.404,4.403-4.404
				h46.617c2.431,0,4.404,1.973,4.404,4.404v162.302h85.95c2.431,0,4.404,1.973,4.404,4.403v35.863c0,2.431-1.974,4.404-4.404,4.404
				H489.027z"/>
		</g>
		<g>
			<path id="e" fill="#FF4400" d="M663.008,178.716c0-2.431,1.973-4.404,4.403-4.404h82.041c23.489,0,43.675,4.201,60.541,12.594
				c17.069,8.394,30.121,20.592,39.157,36.577c9.037,15.792,13.555,34.578,13.555,56.367c0,21.983-4.518,40.972-13.555,56.966
				c-8.833,15.791-21.789,27.884-38.857,36.277c-16.866,8.394-37.149,12.595-60.841,12.595h-82.041
				c-2.431,0-4.403-1.974-4.403-4.404V178.716z M745.532,341.316c20.883,0,36.445-5.1,46.688-15.289
				c10.242-10.19,15.359-25.586,15.359-46.168c0-20.591-5.117-35.881-15.359-45.877c-10.243-10.19-25.806-15.29-46.688-15.29
				h-27.108v122.625H745.532z"/>
		</g>
		<g>
			<path id="f" fill="#FF4400" d="M906.39,385.688c-2.431,0-4.403-1.974-4.403-4.404V178.716c0-2.431,1.973-4.404,4.403-4.404
				h46.617c2.431,0,4.404,1.973,4.404,4.404v202.568c0,2.431-1.974,4.404-4.404,4.404H906.39z"/>
		</g>
	</g>
</g>
<rect x="17.842" y="217" fill="none" width="2.872" height="0"/>
<g>
	<g>
		<path fill="#FF4400" d="M18.1,387.562C6.034,380.416,0,365.777,0,343.658V205.233c0-20.11,5.531-34.573,16.592-43.402
			c11.06-8.826,24.409-13.239,40.051-13.239c34.187,0,69.934,1.455,107.254,4.357v41.56H71.392
			c-14.529,0-21.787,6.819-21.787,20.446v35.862l98.204,2.681v39.216l-98.204,2.681v34.187c0,14.748,6.922,22.121,20.78,22.121
			h93.512v41.562c-29.721,3.353-64.243,5.026-103.567,5.026C44.242,398.289,30.165,394.72,18.1,387.562z"/>
		<path fill="#FF4400" d="M224.388,396.447c-13.521-1.452-23.854-3.405-31.003-5.867v-29.159h79.77
			c7.374,0,12.62-1.004,15.752-3.015c3.127-2.012,4.693-5.917,4.693-11.731v-5.701c0-4.689-1.508-8.209-4.524-10.553
			c-3.017-2.348-8.328-3.521-15.921-3.521H245c-16.757,0-30.054-3.854-39.884-11.563c-9.835-7.708-14.747-20.163-14.747-37.37
			v-10.391c0-17.875,5.416-31.112,16.256-39.717c10.834-8.6,29.547-12.904,56.142-12.904c10.945,0,22.9,0.838,35.862,2.514
			c12.955,1.675,22.792,3.635,29.494,5.865v29.16H252.71c-6.929,0-11.957,1.12-15.082,3.352c-3.131,2.237-4.693,6.149-4.693,11.73
			v5.364c0,5.586,1.676,9.331,5.027,11.227c3.352,1.9,8.934,2.85,16.759,2.85h28.823c17.875,0,31.112,4.079,39.717,12.232
			c8.6,8.161,12.904,19.834,12.904,35.026v16.087c0,17.654-6.034,30.112-18.099,37.37c-12.066,7.264-30.392,10.896-54.968,10.896
			C250.81,398.627,237.905,397.897,224.388,396.447z"/>
		<path fill="#FF4400" d="M401.521,390.58c-8.494-4.02-14.636-10.726-18.434-20.109c-3.803-9.384-5.479-22.005-5.027-37.876
			l1.675-76.08h-28.153v-31.84l29.83-8.044l6.702-50.276h39.214v50.276h42.231v39.884h-42.231v75.748
			c0,8.94,1.56,15.198,4.693,18.768c3.126,3.578,7.484,5.812,13.071,6.704l22.792,2.012v36.869h-32.512
			C421.295,396.615,410.01,394.604,401.521,390.58z"/>
		<path fill="#FF4400" d="M510.279,384.213c-9.049-9.606-13.574-23.012-13.574-40.221V216.63h49.604v112.616
			c0,9.608,2.178,16.254,6.536,19.943c4.357,3.687,10.893,5.528,19.606,5.528c6.253,0,12.679-1.173,19.272-3.518
			c6.588-2.348,12.455-5.53,17.597-9.552V216.63h49.938v179.985h-41.224l-8.715-18.434c-20.78,13.63-41.115,20.445-61.001,20.445
			C532.007,398.627,519.329,393.823,510.279,384.213z M589.883,138.2h39.884l-38.545,46.923h-29.159L589.883,138.2z"/>
		<path fill="#FF4400" d="M707.352,377.511c-10.613-14.077-15.921-37.088-15.921-69.047c0-22.789,2.063-40.997,6.203-54.631
			c4.13-13.625,11.111-23.682,20.946-30.166c9.829-6.477,23.346-9.719,40.555-9.719c14.748,0,30.052,2.797,45.92,8.378v-81.445
			h49.938v255.733h-41.897l-8.041-17.093c-6.26,5.36-13.857,9.887-22.792,13.574c-8.939,3.683-17.765,5.53-26.481,5.53
			C734.105,398.627,717.962,391.587,707.352,377.511z M805.055,348.687v-90.497c-5.814-2.231-11.009-3.964-15.585-5.195
			c-4.585-1.224-9.334-1.842-14.246-1.842c-8.716,0-15.477,1.508-20.275,4.523c-4.81,3.017-8.329,8.496-10.562,16.424
			c-2.234,7.935-3.352,19.272-3.352,34.02c0,14.076,1.061,24.858,3.186,32.342c2.121,7.49,5.473,12.738,10.055,15.756
			c4.577,3.016,10.892,4.521,18.938,4.521C783.938,358.739,794.547,355.389,805.055,348.687z"/>
		<path fill="#FF4400" d="M893.031,188.309c-1.231-1.225-1.844-2.849-1.844-4.861v-32.846c0-4.691,2.349-7.039,7.038-7.039h38.211
			c2.008,0,3.571,0.671,4.689,2.011c1.118,1.341,1.679,3.017,1.679,5.027v32.846c0,4.472-2.128,6.704-6.368,6.704h-38.211
			C895.989,190.151,894.255,189.539,893.031,188.309z M892.195,216.63h49.604v179.985h-49.604V216.63z"/>
		<path fill="#FF4400" d="M1513.244,378.182c-13.186-13.631-19.775-37.208-19.775-70.723c0-23.905,2.901-42.676,8.712-56.306
			c5.812-13.627,14.3-23.238,25.476-28.826c11.171-5.582,25.357-8.378,42.564-8.378c21.672,0,42.568,2.797,62.675,8.378v28.489
			h-47.254c-10.726,0-19.104,1.567-25.138,4.692c-6.033,3.133-10.449,8.716-13.241,16.757c-2.794,8.044-4.189,19.665-4.189,34.859
			c0,14.974,1.396,26.309,4.189,34.019c2.792,7.709,7.208,12.962,13.241,15.754c6.033,2.794,14.629,4.189,25.809,4.189h49.268
			v28.154c-8.493,2.68-18.884,4.919-31.171,6.703c-12.291,1.787-24.132,2.683-35.525,2.683
			C1544.969,398.627,1526.429,391.812,1513.244,378.182z"/>
		<path fill="#FF4400" d="M1667.919,386.391c-8.381-8.154-12.568-19.272-12.568-33.349v-16.088c0-14.296,4.97-25.691,14.917-34.187
			c9.94-8.488,24.744-12.735,44.407-12.735h45.919v-12.4c0-6.035-1.007-10.777-3.017-14.246c-2.007-3.462-5.812-6.032-11.396-7.71
			c-5.587-1.674-13.855-2.513-24.801-2.513h-53.965v-28.824c22.123-6.703,46.141-10.055,72.062-10.055
			c23.681,0,41.394,4.472,53.126,13.407c11.73,8.938,17.595,24.466,17.595,46.588v122.336h-39.218l-8.041-19.104
			c-2.461,2.46-6.818,5.362-13.07,8.712c-6.259,3.353-13.689,6.258-22.289,8.717c-8.606,2.456-17.379,3.688-26.311,3.688
			C1687.409,398.627,1676.298,394.552,1667.919,386.391z M1746.182,360.585c7.591-2.347,12.4-4.074,14.412-5.196v-41.895
			l-30.165,2.01c-16.981,1.34-25.477,8.716-25.477,22.119V345c0,12.734,7.377,19.105,22.125,19.105
			C1732.215,364.105,1738.584,362.929,1746.182,360.585z"/>
	</g>
	<g>
		<g>
			<path fill="#FF4400" d="M1194.921,356.906c-6.215,13.525-17.37,23.595-33.464,30.219c-16.085,6.631-38.87,9.938-68.347,9.938
				c-29.747,0-52.662-3.378-68.754-10.14c-16.088-6.759-27.108-16.764-33.06-30.017c-5.949-13.246-8.927-31.095-8.927-53.544
				c0-22.168,3.041-40.016,9.127-53.542c6.083-13.52,17.176-23.661,33.264-30.423c16.093-6.757,38.875-10.142,68.35-10.142
				c29.477,0,52.262,3.385,68.347,10.142c16.094,6.763,27.249,16.833,33.464,30.218c6.225,13.387,9.332,31.305,9.332,53.747
				C1204.253,325.54,1201.146,343.386,1194.921,356.906z M1172.003,268.275c-3.915-8.518-11.965-15.072-24.135-19.672
				c-12.167-4.597-30.425-6.896-54.758-6.896c-24.338,0-42.523,2.23-54.56,6.692c-12.026,4.462-20.007,11.022-23.933,19.671
				c-3.915,8.66-5.879,20.423-5.879,35.291c0,15.149,1.964,26.977,5.879,35.492c3.926,8.521,11.906,15.009,23.933,19.473
				c12.036,4.46,30.222,6.694,54.56,6.694c24.333,0,42.591-2.234,54.758-6.694c12.17-4.464,20.22-10.952,24.135-19.473
				c3.923-8.516,5.885-20.343,5.885-35.492C1177.888,288.494,1175.926,276.794,1172.003,268.275z"/>
		</g>
		<g>
			<path fill="#FF4400" d="M1449.647,355.229c-6.219,13.526-17.372,23.601-33.464,30.223c-16.087,6.629-38.869,9.938-68.347,9.938
				c-29.747,0-52.664-3.382-68.756-10.143c-16.086-6.756-27.108-16.765-33.06-30.019c-5.945-13.246-8.923-31.093-8.923-53.541
				c0-22.171,3.042-40.018,9.123-53.544c6.083-13.519,17.179-23.659,33.267-30.421c16.09-6.756,38.872-10.142,68.349-10.142
				c29.478,0,52.26,3.385,68.347,10.142c16.092,6.762,27.245,16.832,33.464,30.219c6.225,13.387,9.33,31.303,9.33,53.747
				C1458.978,323.865,1455.872,341.71,1449.647,355.229z M1426.731,266.599c-3.919-8.516-11.969-15.07-24.135-19.672
				c-12.171-4.597-30.427-6.898-54.76-6.898c-24.339,0-42.523,2.234-54.562,6.694c-12.026,4.461-20.007,11.022-23.931,19.673
				c-3.917,8.658-5.883,20.421-5.883,35.291c0,15.148,1.966,26.975,5.883,35.489c3.924,8.521,11.904,15.013,23.931,19.475
				c12.038,4.461,30.223,6.692,54.562,6.692c24.333,0,42.589-2.231,54.76-6.692c12.166-4.462,20.216-10.954,24.135-19.475
				c3.922-8.515,5.881-20.341,5.881-35.489C1432.612,286.818,1430.653,275.118,1426.731,266.599z"/>
		</g>
	</g>
</g>
</svg>
