<?xml version="1.0" encoding="utf-8"?>
<!-- Generator: Adobe Illustrator 22.0.0, SVG Export Plug-In . SVG Version: 6.00 Build 0)  -->
<svg version="1.1" id="Layer_1" xmlns:figma="http://www.figma.com/figma/ns"
	 xmlns="http://www.w3.org/2000/svg" xmlns:xlink="http://www.w3.org/1999/xlink" x="0px" y="0px" viewBox="0 0 1863.7 280"
	 style="enable-background:new 0 0 1863.7 280;" xml:space="preserve">
<style type="text/css">
	.st0{display:none;}
	.st1{display:inline;}
	.st2{fill:#FF4400;}
	.st3{font-family:'Exo-Medium';}
	.st4{font-size:345px;}
	.st5{letter-spacing:-16;}
</style>
<title>Logo</title>
<g transform="translate(-1470)" figma:type="canvas" class="st0">
	<g transform="translate(1470)" figma:type="vector" class="st1">
		<g>
			<path id="b" class="st2" d="M200.2,174.9c2.5,2.8,0.5,7.3-3.3,7.3h-52c-2.5,0-4.9-1.1-6.6-2.9L55.4,86.5v91.2
				c0,2.4-2,4.4-4.4,4.4H4.4c-2.4,0-4.4-2-4.4-4.4V-24.8c0-2.4,2-4.4,4.4-4.4H51c2.4,0,4.4,2,4.4,4.4v86.4l80.5-88
				c1.7-1.8,4-2.9,6.5-2.9h50.7c3.8,0,5.8,4.6,3.2,7.4l-86.8,93L200.2,174.9L200.2,174.9z"/>
		</g>
		<g>
			<path id="c" class="st2" d="M405.1,182.2c-1.8,0-3.3-1-4-2.7l-17.8-41.1h-94l-17.8,41.1c-0.7,1.6-2.3,2.7-4,2.7h-45.9
				c-3.2,0-5.4-3.4-4-6.3l95-202.6c0.7-1.6,2.3-2.5,4-2.5h38.4c1.7,0,3.3,1,4,2.5L454,175.9c1.4,2.9-0.8,6.3-4,6.3L405.1,182.2
				L405.1,182.2z M307,97h58.4l-29.2-67.8L307,97L307,97z"/>
		</g>
		<g>
			<path id="d" class="st2" d="M489,182.2c-2.4,0-4.4-2-4.4-4.4V-24.8c0-2.4,2-4.4,4.4-4.4h46.6c2.4,0,4.4,2,4.4,4.4v162.3h86
				c2.4,0,4.4,2,4.4,4.4v35.9c0,2.4-2,4.4-4.4,4.4H489L489,182.2z"/>
		</g>
		<g>
			<path id="e" class="st2" d="M663-24.8c0-2.4,2-4.4,4.4-4.4h82c23.5,0,43.7,4.2,60.5,12.6C827.1-8.2,840.1,4,849.2,20
				c9,15.8,13.6,34.6,13.6,56.4c0,22-4.5,41-13.6,57c-8.8,15.8-21.8,27.9-38.9,36.3c-16.9,8.4-37.1,12.6-60.8,12.6h-82
				c-2.4,0-4.4-2-4.4-4.4V-24.8z M745.5,137.8c20.9,0,36.4-5.1,46.7-15.3c10.2-10.2,15.4-25.6,15.4-46.2c0-20.6-5.1-35.9-15.4-45.9
				c-10.2-10.2-25.8-15.3-46.7-15.3h-27.1v122.6L745.5,137.8L745.5,137.8z"/>
		</g>
		<g>
			<path id="f" class="st2" d="M906.4,182.2c-2.4,0-4.4-2-4.4-4.4V-24.8c0-2.4,2-4.4,4.4-4.4H953c2.4,0,4.4,2,4.4,4.4v202.6
				c0,2.4-2,4.4-4.4,4.4H906.4z"/>
		</g>
	</g>
</g>
<polygon class="st2" points="14.7,13.7 17.7,13.7 17.7,13.7 "/>
<g class="st0">
	<path class="st1" d="M361,86.4c0-39.3,27.9-47.5,49.2-47.1c0,0,79.8,2.2,99.7,5v35.8h-89.5c-16.1,0-16.1,9-16.1,17.4v35.4l91.5,3.3
		v35.6l-91.5,2.9V210c0.1,16.4,10.2,16.1,19.2,16.1h86.4v35.5c-17.5,2.4-96.6,5.3-96.6,5.3c-20.2,0.9-52.3-3.7-52.3-45.5L361,86.4
		L361,86.4z"/>
	<path class="st1" d="M527.9,144.3c0-25.4,10.8-44.3,42.7-44.3c31.6,0,75.1,1,87.8,8.3v27.4h-74.5c-11.1,0-12.7,3.5-12.7,11.3v7.4
		c0,10.4,5.5,10.7,12.7,10.7h39c31.4,0,43.7,18.6,43.7,42.5v16.9c0,33.8-20.4,43-40.2,43c-31.2,0-80.2-1.4-91.7-8.9v-27.1h77.7
		c2.9,0,10.9-0.4,10.9-10.4v-7.7c0-6.9-2-10.7-10.9-10.7H574c-29.1,0-46.1-12.3-46.1-44.1V144.3z"/>
	<path class="st1" d="M677.4,110.2l26.6-9l7.3-45.8h36.1v45.8h36.8v33.2h-36.8v65.9c0,24.2,5.6,29.4,14.1,32.5
		c0,0,18.6,6.5,20.7,6.5V266h-37.8c-24.4,0-40.4-15.2-40.4-58.8v-72.7h-26.6L677.4,110.2L677.4,110.2z"/>
	<path class="st1" d="M802.5,101.5h43.3v110.1c0,16.3,7.3,22.2,18.2,22.2c17.4,0,27-4.5,39.7-14.3V101.5h43.3V266h-34.8l-8.5-17.5
		c-16.3,9.8-27.1,20.3-52.2,20.3c-38.3,0-49.1-26.4-49.1-57.7L802.5,101.5L802.5,101.5z M888.7,38.5h37.9l-37.8,42.9h-28.2
		L888.7,38.5z"/>
	<path class="st1" d="M1026.5,99.1c13.9,0,34.7,3.8,49.8,10.7V22.9h43.2V266h-35.7l-7.7-16.6c-10.3,8.2-30.1,18.4-49.6,18.4
		c-40.5,0-53.7-32-53.7-83.3C972.8,132,980.9,99.1,1026.5,99.1z M1037.7,230.8c16.3,0,29.1-4.2,38.4-10.2v-81.4
		c-11.3-4.4-23.4-6.2-38.4-6.2c-13.7,0-21.6,7.8-21.6,49.8C1016.1,219.5,1023.7,230.8,1037.7,230.8z"/>
	<path class="st1" d="M1145,49.7c0-4.6,2.5-7.7,7.4-7.7h32.5c4.6,0,7,3.4,7,7.7v27.5c0,4.7-2.6,7.1-7,7.1h-32.5
		c-4.3,0-7.4-2.8-7.4-7.1V49.7L1145,49.7z M1146.5,101.5h43.4V266h-43.4V101.5z"/>
	<path class="st1" d="M1290.3,100c56.6,0,75,20.7,75,86.1c0,61-17.5,81.4-75,81.4c-56.8,0-75-22.6-75-81.4
		C1215.3,118.9,1234.7,100,1290.3,100z M1290.3,232.7c24.4,0,31.6-3.3,31.6-46.6c0-46.1-5.8-51.3-31.6-51.3
		c-25.7,0-31.7,5.2-31.7,51.3C1258.6,228.6,1267.2,232.7,1290.3,232.7z"/>
	<path class="st1" d="M1463.7,100c56.6,0,75,20.7,75,86.1c0,61-17.5,81.4-75,81.4c-56.8,0-75-22.6-75-81.4
		C1388.7,118.9,1408.1,100,1463.7,100z M1463.7,232.7c24.4,0,31.7-3.3,31.7-46.6c0-46.1-5.8-51.3-31.7-51.3
		c-25.7,0-31.7,5.2-31.7,51.3C1432,228.6,1440.6,232.7,1463.7,232.7z"/>
	<path class="st1" d="M1616.2,100c16.1,0,48.6,0.9,75.7,9.7v26.9c0,0-29.6-1.9-57.1-1.9c-19.9,0-29.4,1.2-29.4,49.7
		c0,42.1,7.1,48.2,29.4,48.2c28.5,0,59.3-2.9,59.3-2.9V257c-24,12.2-52.2,10.2-77.9,10.5c-30.7,0-54.2-16-54.2-83.9
		C1562.1,115.9,1584.6,100,1616.2,100z"/>
	<path class="st1" d="M1712.6,208.6c0-23.9,12.9-45.1,48.2-45.1c0,0,48.3,0.3,48.3,0c0,0,0.3-10.2,0-10.5c0-17.5-8.2-20.3-22-20.3
		c-14.3,0-55.5,2.6-69,3.6v-26.8c21.6-8.4,44.2-10.9,74.9-11c35.4-0.1,59.5,12.1,59.5,52.8V266h-34.2l-9.1-18.1
		c-1.8,3.6-24.9,20.5-50,20c-31.6-0.9-46.5-22.4-46.5-43.8L1712.6,208.6L1712.6,208.6z M1771.4,233c18.1,0,37.7-12.7,37.7-12.7
		v-30.1l-39.8,3.1c-11.5,1-13.3,9.5-13.3,16.7v8C1756,231.6,1763.4,233,1771.4,233z"/>
</g>
<image style="display:none;overflow:visible;" width="512" height="512" xlink:href="quadraa.png"  transform="matrix(0.5405 0 0 0.5405 9.057 6.9882)">
</image>
<image style="overflow:visible;" width="512" height="512" xlink:href="central.png"  transform="matrix(0.5273 0 0 0.5273 13 7.1569)">
</image>
<text transform="matrix(1 0 0 1 342 270)" class="st3 st4 st5">Estúdiooca</text>
</svg>
