<?xml version="1.0" encoding="utf-8"?>
<!-- Generator: Adobe Illustrator 16.0.0, SVG Export Plug-In . SVG Version: 6.00 Build 0)  -->
<!DOCTYPE svg PUBLIC "-//W3C//DTD SVG 1.1//EN" "http://www.w3.org/Graphics/SVG/1.1/DTD/svg11.dtd">
<svg version="1.1" id="Layer_1" xmlns="http://www.w3.org/2000/svg" xmlns:xlink="http://www.w3.org/1999/xlink" x="0px" y="0px"
	 width="960px" height="560px" viewBox="0 0 960 560" enable-background="new 0 0 960 560" xml:space="preserve">
<rect x="95.842" y="366" fill="none" width="2.872" height="0"/>
<g>
	<g>
		<path fill="#EE4823" d="M106.555,306.035c-5.17-3.062-7.755-9.334-7.755-18.812v-59.309c0-8.616,2.37-14.813,7.109-18.596
			c4.739-3.781,10.458-5.672,17.16-5.672c14.647,0,29.964,0.624,45.954,1.867v17.807h-39.635c-6.225,0-9.334,2.922-9.334,8.76
			v15.365l42.076,1.149v16.802l-42.076,1.149v14.647c0,6.318,2.966,9.478,8.903,9.478h40.066v17.808
			c-12.734,1.437-27.525,2.153-44.374,2.153C117.756,310.631,111.724,309.102,106.555,306.035z"/>
		<path fill="#EE4823" d="M194.94,309.842c-5.793-0.622-10.221-1.459-13.284-2.514v-12.494h34.178c3.159,0,5.407-0.43,6.749-1.291
			c1.34-0.862,2.011-2.535,2.011-5.026v-2.442c0-2.01-0.646-3.518-1.938-4.522c-1.292-1.005-3.568-1.508-6.821-1.508h-12.063
			c-7.18,0-12.877-1.651-17.089-4.954c-4.214-3.303-6.318-8.639-6.318-16.012v-4.452c0-7.658,2.32-13.33,6.965-17.017
			c4.642-3.685,12.659-5.529,24.054-5.529c4.689,0,9.812,0.359,15.365,1.077c5.551,0.718,9.765,1.557,12.637,2.513v12.494h-32.311
			c-2.969,0-5.123,0.479-6.462,1.436c-1.342,0.958-2.011,2.635-2.011,5.026v2.298c0,2.394,0.718,3.998,2.154,4.811
			c1.436,0.814,3.828,1.221,7.181,1.221h12.35c7.658,0,13.33,1.748,17.017,5.241c3.685,3.496,5.529,8.498,5.529,15.007v6.893
			c0,7.564-2.585,12.902-7.754,16.012c-5.17,3.112-13.021,4.668-23.551,4.668C206.261,310.775,200.732,310.463,194.94,309.842z"/>
		<path fill="#EE4823" d="M270.834,307.328c-3.64-1.723-6.271-4.596-7.898-8.616c-1.629-4.021-2.347-9.429-2.154-16.228
			l0.718-32.598h-12.062v-13.642l12.781-3.446l2.872-21.541h16.801v21.541h18.094v17.088h-18.094v32.455
			c0,3.83,0.668,6.512,2.011,8.041c1.339,1.533,3.207,2.49,5.601,2.872l9.765,0.862v15.797h-13.93
			C279.307,309.914,274.471,309.052,270.834,307.328z"/>
		<path fill="#EE4823" d="M317.432,304.6c-3.877-4.115-5.816-9.859-5.816-17.232v-54.569h21.253v48.25
			c0,4.117,0.933,6.965,2.8,8.545c1.867,1.579,4.667,2.369,8.401,2.369c2.679,0,5.432-0.503,8.257-1.508
			c2.823-1.006,5.336-2.369,7.539-4.092v-53.565h21.397v77.116h-17.663l-3.734-7.898c-8.903,5.84-17.616,8.76-26.136,8.76
			C326.742,310.775,321.31,308.717,317.432,304.6z M351.539,199.194h17.088l-16.515,20.104h-12.493L351.539,199.194z"/>
		<path fill="#EE4823" d="M401.869,301.729c-4.548-6.031-6.821-15.891-6.821-29.583c0-9.765,0.884-17.566,2.657-23.407
			c1.771-5.838,4.761-10.146,8.975-12.924c4.212-2.775,10.003-4.164,17.376-4.164c6.319,0,12.875,1.198,19.674,3.59v-34.896h21.396
			v109.571h-17.951l-3.446-7.324c-2.682,2.297-5.937,4.236-9.766,5.816c-3.83,1.578-7.611,2.369-11.345,2.369
			C413.333,310.775,406.415,307.76,401.869,301.729z M443.73,289.378v-38.773c-2.491-0.956-4.717-1.698-6.678-2.226
			c-1.963-0.525-3.999-0.79-6.103-0.79c-3.734,0-6.631,0.646-8.688,1.938c-2.06,1.292-3.568,3.64-4.524,7.037
			c-0.958,3.399-1.436,8.257-1.436,14.576c0,6.031,0.454,10.651,1.365,13.858c0.909,3.209,2.345,5.457,4.308,6.75
			c1.961,1.292,4.667,1.938,8.114,1.938C434.683,293.686,439.229,292.25,443.73,289.378z"/>
		<path fill="#EE4823" d="M481.425,220.664c-0.527-0.525-0.79-1.221-0.79-2.083v-14.073c0-2.01,1.006-3.016,3.016-3.016h16.371
			c0.861,0,1.53,0.287,2.01,0.862c0.479,0.574,0.719,1.292,0.719,2.154v14.073c0,1.916-0.911,2.872-2.729,2.872H483.65
			C482.692,221.453,481.949,221.191,481.425,220.664z M481.066,232.798h21.253v77.116h-21.253V232.798z"/>
		<path fill="#EE4823" d="M747.159,302.016c-5.649-5.84-8.474-15.941-8.474-30.301c0-10.243,1.243-18.285,3.733-24.125
			c2.49-5.838,6.126-9.956,10.915-12.35c4.786-2.392,10.864-3.59,18.237-3.59c9.284,0,18.238,1.198,26.854,3.59v12.206h-20.247
			c-4.596,0-8.186,0.671-10.771,2.011c-2.585,1.342-4.477,3.734-5.673,7.18c-1.197,3.447-1.795,8.426-1.795,14.936
			c0,6.415,0.598,11.272,1.795,14.575c1.196,3.303,3.088,5.554,5.673,6.75c2.585,1.197,6.269,1.795,11.058,1.795h21.109v12.062
			c-3.64,1.148-8.091,2.107-13.355,2.872c-5.266,0.766-10.339,1.149-15.221,1.149C760.752,310.775,752.808,307.855,747.159,302.016z
			"/>
		<path fill="#EE4823" d="M813.431,305.533c-3.591-3.494-5.386-8.258-5.386-14.289v-6.893c0-6.125,2.13-11.008,6.392-14.647
			c4.259-3.637,10.602-5.457,19.026-5.457h19.675v-5.313c0-2.585-0.432-4.618-1.293-6.103c-0.86-1.483-2.49-2.585-4.882-3.303
			c-2.395-0.718-5.938-1.077-10.627-1.077h-23.121v-12.35c9.479-2.872,19.769-4.308,30.875-4.308
			c10.146,0,17.735,1.916,22.762,5.744c5.026,3.83,7.539,10.482,7.539,19.961v52.416h-16.803l-3.445-8.186
			c-1.055,1.054-2.922,2.297-5.601,3.732c-2.682,1.437-5.865,2.682-9.55,3.734c-3.687,1.053-7.445,1.58-11.272,1.58
			C821.781,310.775,817.021,309.029,813.431,305.533z M846.963,294.477c3.252-1.006,5.312-1.746,6.175-2.227V274.3l-12.925,0.861
			c-7.276,0.574-10.915,3.734-10.915,9.478v3.16c0,5.456,3.16,8.186,9.479,8.186C840.978,295.984,843.707,295.48,846.963,294.477z"
			/>
	</g>
	<g>
		<g>
			<path fill="#EE4823" d="M610.771,292.9c-2.663,5.795-7.442,10.109-14.338,12.947c-6.892,2.841-16.654,4.258-29.284,4.258
				c-12.745,0-22.563-1.447-29.458-4.345c-6.893-2.896-11.614-7.183-14.164-12.86c-2.549-5.676-3.824-13.323-3.824-22.941
				c0-9.499,1.303-17.145,3.91-22.94c2.606-5.792,7.359-10.137,14.252-13.035c6.895-2.895,16.656-4.345,29.284-4.345
				c12.63,0,22.393,1.45,29.284,4.345c6.896,2.897,11.675,7.212,14.338,12.947c2.667,5.735,3.998,13.413,3.998,23.028
				C614.77,279.461,613.438,287.107,610.771,292.9z M600.952,254.926c-1.678-3.649-5.127-6.457-10.341-8.429
				c-5.214-1.969-13.035-2.955-23.462-2.955c-10.428,0-18.219,0.956-23.376,2.867c-5.153,1.912-8.572,4.723-10.254,8.429
				c-1.678,3.709-2.52,8.75-2.52,15.12c0,6.491,0.842,11.559,2.52,15.207c1.682,3.65,5.101,6.431,10.254,8.343
				c5.157,1.911,12.948,2.868,23.376,2.868c10.427,0,18.248-0.957,23.462-2.868c5.214-1.912,8.663-4.692,10.341-8.343
				c1.681-3.648,2.521-8.716,2.521-15.207C603.473,263.589,602.633,258.576,600.952,254.926z"/>
		</g>
		<g>
			<path fill="#EE4823" d="M719.91,292.182c-2.664,5.795-7.443,10.111-14.338,12.948c-6.892,2.841-16.653,4.259-29.283,4.259
				c-12.745,0-22.564-1.449-29.459-4.346c-6.893-2.895-11.614-7.183-14.164-12.861c-2.548-5.676-3.824-13.322-3.824-22.94
				c0-9.499,1.304-17.146,3.91-22.941c2.606-5.792,7.359-10.137,14.253-13.034c6.894-2.895,16.655-4.345,29.284-4.345
				c12.63,0,22.392,1.45,29.283,4.345c6.895,2.897,11.674,7.212,14.338,12.947c2.667,5.735,3.998,13.412,3.998,23.028
				C723.908,278.743,722.577,286.39,719.91,292.182z M710.092,254.208c-1.679-3.649-5.128-6.457-10.341-8.429
				c-5.215-1.969-13.036-2.955-23.462-2.955c-10.428,0-18.22,0.957-23.377,2.868c-5.153,1.912-8.572,4.722-10.253,8.429
				c-1.679,3.709-2.521,8.75-2.521,15.12c0,6.49,0.843,11.558,2.521,15.206c1.681,3.65,5.1,6.432,10.253,8.344
				c5.157,1.911,12.949,2.867,23.377,2.867c10.426,0,18.247-0.956,23.462-2.867c5.213-1.912,8.662-4.693,10.341-8.344
				c1.681-3.648,2.52-8.716,2.52-15.206C712.611,262.871,711.772,257.857,710.092,254.208z"/>
		</g>
	</g>
</g>
</svg>
