<?xml version="1.0" encoding="utf-8"?>
<!-- Generator: Adobe Illustrator 16.0.0, SVG Export Plug-In . SVG Version: 6.00 Build 0)  -->
<!DOCTYPE svg PUBLIC "-//W3C//DTD SVG 1.1//EN" "http://www.w3.org/Graphics/SVG/1.1/DTD/svg11.dtd">
<svg version="1.1" id="Layer_1" xmlns:figma="http://www.figma.com/figma/ns"
	 xmlns="http://www.w3.org/2000/svg" xmlns:xlink="http://www.w3.org/1999/xlink" x="0px" y="0px" width="1814.453px"
	 height="260px" viewBox="0 215.513 1814.453 260" enable-background="new 0 215.513 1814.453 260" xml:space="preserve">
<title>Logo</title>
<g transform="translate(-1470)" figma:type="canvas" display="none">
	<g transform="translate(1470)" figma:type="vector" display="inline">
		<g>
			<path id="b" fill="#FF4400" d="M200.235,378.387c2.493,2.845,0.467,7.302-3.312,7.302h-52.025c-2.51,0-4.897-1.066-6.562-2.935
				l-82.912-92.706v91.244c0,2.432-1.973,4.404-4.404,4.404H4.404c-2.431,0-4.404-1.974-4.404-4.404V178.725
				c0-2.432,1.973-4.404,4.404-4.404h46.617c2.431,0,4.404,1.973,4.404,4.404v86.443l80.508-87.984
				c1.673-1.823,4.025-2.862,6.5-2.862h50.748c3.849,0,5.848,4.588,3.224,7.407l-86.761,93.031l90.601,103.637L200.235,378.387z"/>
		</g>
		<g>
			<path id="c" fill="#FF4400" d="M405.059,385.688c-1.753,0-3.347-1.04-4.043-2.651l-17.825-41.121h-93.976l-17.826,41.121
				c-0.696,1.611-2.281,2.651-4.043,2.651h-45.904c-3.223,0-5.355-3.356-3.99-6.271l94.961-202.567
				c0.722-1.551,2.281-2.537,3.99-2.537h38.382c1.708,0,3.259,0.985,3.99,2.527l95.251,202.568c1.374,2.924-0.759,6.28-3.981,6.28
				H405.059L405.059,385.688z M306.989,300.539h58.437l-29.214-67.764l-29.214,67.764H306.989z"/>
		</g>
		<g>
			<path id="d" fill="#FF4400" d="M489.027,385.688c-2.432,0-4.403-1.975-4.403-4.404V178.716c0-2.431,1.973-4.403,4.403-4.403
				h46.617c2.431,0,4.403,1.973,4.403,4.403v162.303h85.95c2.431,0,4.404,1.973,4.404,4.402v35.863c0,2.431-1.975,4.404-4.404,4.404
				H489.027L489.027,385.688z"/>
		</g>
		<g>
			<path id="e" fill="#FF4400" d="M663.008,178.716c0-2.431,1.974-4.403,4.403-4.403h82.041c23.489,0,43.675,4.201,60.541,12.594
				c17.069,8.394,30.121,20.592,39.157,36.577c9.037,15.792,13.555,34.578,13.555,56.367c0,21.982-4.518,40.972-13.555,56.966
				c-8.833,15.791-21.789,27.884-38.857,36.276c-16.866,8.395-37.148,12.596-60.841,12.596h-82.041
				c-2.431,0-4.403-1.975-4.403-4.404V178.716z M745.532,341.316c20.883,0,36.444-5.101,46.688-15.289
				c10.242-10.19,15.359-25.586,15.359-46.168c0-20.591-5.117-35.881-15.359-45.877c-10.243-10.19-25.806-15.29-46.688-15.29
				h-27.108v122.625L745.532,341.316L745.532,341.316z"/>
		</g>
		<g>
			<path id="f" fill="#FF4400" d="M906.39,385.688c-2.431,0-4.402-1.975-4.402-4.404V178.716c0-2.431,1.973-4.403,4.402-4.403
				h46.617c2.432,0,4.404,1.973,4.404,4.403v202.568c0,2.431-1.974,4.404-4.404,4.404H906.39z"/>
		</g>
	</g>
</g>
<polygon fill="#FF4400" points="14.738,217.185 17.714,217.185 17.714,217.185 "/>
<g>
	<g>
		<path fill="#FF4400" d="M0.953,289.914c0-39.345,27.851-47.505,49.226-47.081c0,0,79.788,2.235,99.713,4.953v35.827H60.399
			c-16.098,0-16.098,8.996-16.098,17.358v35.35l91.497,3.271v35.626l-91.497,2.943v35.34c0.137,16.423,10.214,16.118,19.192,16.118
			h86.398v35.528c-17.537,2.368-96.619,5.281-96.619,5.281c-20.215,0.884-52.32-3.721-52.32-45.512V289.914z"/>
		<path fill="#FF4400" d="M167.888,347.79c0-25.393,10.835-44.26,42.719-44.26c31.594,0,75.106,1.01,87.797,8.346v27.354h-74.502
			c-11.143,0-12.665,3.493-12.665,11.289v7.437c0,10.387,5.459,10.674,12.665,10.674h39.04c31.357,0,43.654,18.566,43.654,42.488
			v16.869c0,33.754-20.434,43.026-40.249,43.026c-31.176,0-80.231-1.396-91.653-8.937v-27.064h77.689
			c2.89,0,10.863-0.375,10.863-10.431v-7.675c0-6.936-2.009-10.729-10.863-10.729h-38.37c-29.106,0-46.125-12.259-46.125-44.137
			V347.79z"/>
		<path fill="#FF4400" d="M317.422,313.711L344,304.753l7.274-45.797h36.068v45.797h36.761v33.155h-36.761v65.935
			c0,24.207,5.593,29.385,14.068,32.516c0,0,18.578,6.529,20.747,6.529v26.615h-37.802c-24.352,0-40.354-15.198-40.354-58.849
			v-72.746h-26.578V313.711z"/>
		<path fill="#FF4400" d="M442.49,305.062h43.344v110.146c0,16.346,7.312,22.212,18.162,22.212c17.446,0,26.966-4.491,39.743-14.253
			V305.062h43.35v164.416h-34.84l-8.51-17.506c-16.339,9.839-27.088,20.288-52.182,20.288c-38.253,0-49.066-26.42-49.066-57.749
			V305.062z M528.708,242.059h37.929l-37.759,42.89h-28.177L528.708,242.059z"/>
		<path fill="#FF4400" d="M666.463,302.593c13.927,0,34.746,3.844,49.79,10.681v-86.851h43.211v243.056h-35.65l-7.738-16.562
			c-10.269,8.249-30.097,18.409-49.612,18.409c-40.468,0-53.67-32.043-53.67-83.295
			C612.793,335.548,620.905,302.593,666.463,302.593z M677.701,434.289c16.295,0,29.149-4.19,38.375-10.171v-81.382
			c-11.304-4.381-23.396-6.165-38.375-6.165c-13.683,0-21.569,7.812-21.569,49.761C656.131,423.007,663.693,434.289,677.701,434.289
			z"/>
		<path fill="#FF4400" d="M784.97,253.203c0-4.628,2.471-7.737,7.421-7.737H824.9c4.63,0,6.964,3.408,6.964,7.737v27.453
			c0,4.651-2.633,7.125-6.964,7.125h-32.509c-4.337,0-7.421-2.796-7.421-7.125V253.203z M786.518,305.062h43.361v164.416h-43.361
			V305.062z"/>
		<path fill="#FF4400" d="M930.257,303.53c56.601,0,74.991,20.723,74.991,86.073c0,60.994-17.532,81.409-74.991,81.409
			c-56.791,0-74.997-22.584-74.997-81.409C855.26,322.397,874.663,303.53,930.257,303.53z M930.257,436.198
			c24.405,0,31.645-3.329,31.645-46.595c0-46.06-5.814-51.262-31.645-51.262c-25.658,0-31.674,5.23-31.674,51.262
			C898.583,432.131,907.219,436.198,930.257,436.198z"/>
		<path fill="#FF4400" d="M1103.666,303.53c56.602,0,75.007,20.723,75.007,86.073c0,60.994-17.548,81.409-75.007,81.409
			c-56.766,0-74.995-22.584-74.995-81.409C1028.671,322.397,1048.086,303.53,1103.666,303.53z M1103.666,436.198
			c24.405,0,31.669-3.329,31.669-46.595c0-46.06-5.825-51.262-31.669-51.262c-25.654,0-31.67,5.23-31.67,51.262
			C1071.996,432.131,1080.619,436.198,1103.666,436.198z"/>
		<path fill="#FF4400" d="M1256.238,303.53c16.108,0,48.576,0.946,75.704,9.743v26.94c0,0-29.572-1.872-57.137-1.872
			c-19.93,0-29.387,1.199-29.387,49.653c0,42.104,7.087,48.203,29.387,48.203c28.476,0,59.309-2.896,59.309-2.896v27.215
			c-24.046,12.228-52.169,10.208-77.876,10.495c-30.659,0-54.183-16.012-54.183-83.895
			C1202.056,319.375,1224.644,303.53,1256.238,303.53z"/>
		<path fill="#FF4400" d="M1352.606,412.088c0-23.942,12.928-45.096,48.169-45.096c0,0,48.313,0.298,48.313,0
			c0,0,0.286-10.229,0-10.531c0-17.531-8.208-20.276-21.999-20.276c-14.275,0-55.538,2.571-69.027,3.556v-26.766
			c21.646-8.423,44.247-10.868,74.894-11.017c35.413-0.137,59.456,12.089,59.456,52.807v114.714h-34.227l-9.097-18.119
			c-1.83,3.582-24.916,20.466-49.999,19.967c-31.646-0.861-46.483-22.388-46.483-43.763V412.088z M1411.357,436.499
			c18.093,0,37.731-12.716,37.731-12.716v-30.137l-39.789,3.082c-11.458,1.034-13.345,9.509-13.345,16.708v7.974
			C1395.955,435.099,1403.357,436.499,1411.357,436.499z"/>
	</g>
	<g>
		<path fill="#FF4400" d="M1707.862,222.515c-2.729,0-5.253,1.092-6.618,2.875l-36.986,48.153l-36.981-48.153
			c-1.366-1.783-3.892-2.875-6.622-2.875c-5.9,0-9.574,4.792-6.628,8.626l41.404,53.898l-20.003,26.03h17.668l11.162-14.528
			l11.165,14.528h17.666l-20.002-26.03l41.404-53.898C1717.446,227.307,1713.755,222.515,1707.862,222.515"/>
		<polygon fill="#FF4400" points="1713.145,337.185 1615.361,337.185 1599.161,358.271 1514.057,469.076 1814.453,469.076 		"/>
		<polygon fill="#FF4400" points="1664.258,273.544 1628.026,320.703 1700.357,320.703 1700.483,320.703 1693.089,311.076 		"/>
	</g>
</g>
</svg>
