<?xml version="1.0"?>
<svg xmlns="http://www.w3.org/2000/svg" id="outline" viewBox="0 0 512 512" width="512" height="512"><path d="M400,136a24,24,0,1,0-24-24A24.0275,24.0275,0,0,0,400,136Zm0-32a8,8,0,1,1-8,8A8.00917,8.00917,0,0,1,400,104Z"/><path d="M488,88H469.3457l-3.34082-8.06445,13.19141-13.19043a8.00122,8.00122,0,0,0,0-11.31446L456.56934,32.80371a8.003,8.003,0,0,0-11.31446,0L432.06445,45.99512,424,42.65479V24a8.00039,8.00039,0,0,0-8-8H384a8.00039,8.00039,0,0,0-8,8V42.6543l-8.06445,3.34082L354.74512,32.80371a8.003,8.003,0,0,0-11.31446,0l-22.62695,22.627a8.00122,8.00122,0,0,0,0,11.31446l13.19141,13.19043L330.6543,88H312a8.00039,8.00039,0,0,0-8,8v32a8.00039,8.00039,0,0,0,8,8h18.65479l3.34033,8.06445-11.25684,11.25586a71.23892,71.23892,0,0,0-9.51758-4.40625L285.45483,140.502A31.817,31.817,0,0,0,288,128V104a40.04584,40.04584,0,0,0-40-40,24.0275,24.0275,0,0,0-24,24v40a31.817,31.817,0,0,0,2.54517,12.50195l-27.76685,10.41211a71.27306,71.27306,0,0,0-9.51685,4.406l-11.25659-11.25562L181.3457,136H200a8.00039,8.00039,0,0,0,8-8V96a8.00039,8.00039,0,0,0-8-8H181.3457l-3.34082-8.06445,13.19141-13.19043a8.00122,8.00122,0,0,0,0-11.31446L168.56934,32.80371a8.003,8.003,0,0,0-11.31446,0L144.06445,45.99512,136,42.65479V24a8.00039,8.00039,0,0,0-8-8H96a8.00039,8.00039,0,0,0-8,8V42.6543l-8.06445,3.34082L66.74512,32.80371a8.003,8.003,0,0,0-11.31446,0l-22.62695,22.627a8.00122,8.00122,0,0,0,0,11.31446L45.99512,79.93555,42.6543,88H24a8.00039,8.00039,0,0,0-8,8v32a8.00039,8.00039,0,0,0,8,8H42.65479l3.34033,8.06445L32.80371,157.25488a8.00122,8.00122,0,0,0,0,11.31446l22.627,22.62695a8.003,8.003,0,0,0,11.31446,0l13.19043-13.19141L88,181.3457V200a7.99566,7.99566,0,0,0,5.19971,7.48584l-2.85694,2.85693a8.0007,8.0007,0,0,0,.45118,11.73145l32.99316,28.2793a48.1717,48.1717,0,0,0,57.86328,3.49414l12.49219-8.32813,5.83179,34.9917-7.96851,207.18115A8.00022,8.00022,0,0,0,200,496h24a8,8,0,0,0,7.82812-6.35156L256,374.833l24.17188,114.81543A8,8,0,0,0,288,496h24a8.00022,8.00022,0,0,0,7.99414-8.30762l-7.96851-207.18115,5.83179-34.9917,12.49219,8.32813a48.16889,48.16889,0,0,0,57.86328-3.49414l32.99316-28.2793a8.0007,8.0007,0,0,0,.45118-11.73145l-2.85694-2.85693A7.99566,7.99566,0,0,0,424,200V181.3457l8.06445-3.34082,13.19043,13.19141a8.003,8.003,0,0,0,11.31446,0l22.62695-22.62695a8.00122,8.00122,0,0,0,0-11.31446l-13.19141-13.19043L469.3457,136H488a8.00039,8.00039,0,0,0,8-8V96A8.00039,8.00039,0,0,0,488,88ZM450.91211,49.77441l11.31348,11.31348L450.91113,72.40137c-.14355.14355-.26172.304-.39258.4563a64.73815,64.73815,0,0,0-11.34667-11.40186c.14184-.123.29248-.23267.42675-.36694ZM320,104h16a8,8,0,0,0,7.39062-4.93848l7.43165-17.9414a8.00029,8.00029,0,0,0-1.7334-8.71875L337.77441,61.08789l11.31348-11.31348,11.31348,11.31446a7.99781,7.99781,0,0,0,8.71875,1.7334l17.9414-7.43165A8,8,0,0,0,392,48V32h16V58.31934a8.00145,8.00145,0,0,0,5.71777,7.668,48.00838,48.00838,0,1,1-59.73047,59.73047A8.00145,8.00145,0,0,0,346.31934,120H320Zm29.45605,47.17212a64.7273,64.7273,0,0,0,11.40162,11.34643c-.15235.13086-.31275.249-.4563.39258l-11.31348,11.31446-11.31348-11.31348,11.31446-11.31348C349.22314,151.46436,349.33276,151.314,349.45605,151.17212Zm5.217,40.08935c.02319-.02294.04882-.042.072-.06518l13.19043-13.19141L376,181.3457V200a7.95215,7.95215,0,0,0,1.26758,4.31006l-5.665,3.39892a8.00018,8.00018,0,0,1-11.46973-3.708ZM392,192V176c0-.17773-.02783-.34961-.03931-.52515A62.9643,62.9643,0,0,0,400,176a64.23874,64.23874,0,0,0,8.03906-.523c-.01123.17481-.03906.34619-.03906.523v16ZM256,144a16.01833,16.01833,0,0,1-16-16V112h32v16A16.01833,16.01833,0,0,1,256,144ZM240,88a8.00917,8.00917,0,0,1,8-8,24.04166,24.04166,0,0,1,22.62891,16H240ZM103.96069,175.47485A62.9643,62.9643,0,0,0,112,176a64.23874,64.23874,0,0,0,8.03906-.523c-.01123.17481-.03906.34619-.03906.523v16H104V176C104,175.82227,103.97217,175.65039,103.96069,175.47485Zm58.59058-24.29419c.12109.13892.22827.28638.35986.418l11.31446,11.31348-11.31348,11.31348-11.31348-11.31446c-.13159-.13134-.27929-.23877-.418-.35962A64.52759,64.52759,0,0,0,162.55127,151.18066ZM136,200V181.3457l8.06445-3.34082,13.19043,13.19141c.0232.02319.04883.04224.072.06518L151.86719,204.001a7.99944,7.99944,0,0,1-11.46875,3.708l-5.66553-3.39941A7.95426,7.95426,0,0,0,136,200Zm56-96v16H176c-.17676,0-.34814.02783-.523.03906A64.23874,64.23874,0,0,0,176,112a62.9643,62.9643,0,0,0-.52515-8.03931c.17554.01148.34742.03931.52515.03931ZM162.91211,49.77441l11.31348,11.31348L162.91113,72.40137c-.14355.14355-.26172.304-.39258.4563a64.73815,64.73815,0,0,0-11.34667-11.40186c.14184-.123.29248-.23267.42675-.36694ZM32,104H48a8,8,0,0,0,7.39062-4.93848l7.43165-17.9414a8.00029,8.00029,0,0,0-1.7334-8.71875L49.77441,61.08789,61.08789,49.77441,72.40137,61.08887a7.99816,7.99816,0,0,0,8.71875,1.7334l17.9414-7.43165A8,8,0,0,0,104,48V32h16V58.31934a8.00145,8.00145,0,0,0,5.71777,7.668A48.00838,48.00838,0,1,1,65.9873,125.71777,8.00145,8.00145,0,0,0,58.31934,120H32Zm29.08789,70.22559L49.77441,162.91211l11.31446-11.31348c.13427-.13427.24389-.28467.36718-.42651a64.7273,64.7273,0,0,0,11.40162,11.34643c-.15235.13086-.31275.249-.4563.39258Zm73.11133,63.97949-26.4336-22.65723,5.47461-5.47461L132.166,221.42969a23.95458,23.95458,0,0,0,26.03637-.87549l12.67945,21.13208A32.11681,32.11681,0,0,1,134.19922,238.20508ZM294.49121,480,263.82812,334.35156a7.99975,7.99975,0,0,0-15.65624,0L217.50879,480h-9.19531l7.38476-192h80.60352l7.38476,192ZM316.4375,225.34375a8,8,0,0,0-12.3291,5.34082L297.22266,272H214.77734l-6.88574-41.31543a8,8,0,0,0-12.3291-5.34082l-11.30444,7.53613-15.95972-26.59936,4.29053-10.011a56.26638,56.26638,0,0,1,31.80761-30.375l32.54737-12.20508A31.89245,31.89245,0,0,0,248,158.9873V224h16V158.9873a31.89245,31.89245,0,0,0,11.05615-5.29785l32.54639,12.20508a56.26519,56.26519,0,0,1,31.80859,30.375l4.29053,10.011-15.95972,26.59936Zm61.36328,12.86133a32.11485,32.11485,0,0,1-36.68237,3.481l12.6792-21.13184a23.95458,23.95458,0,0,0,26.03637.87549l18.92579-11.35645,5.47461,5.47461Zm73.11133-63.97949-11.31348-11.31446c-.13159-.13134-.27929-.23877-.418-.35962a64.52759,64.52759,0,0,0,11.37061-11.37085c.12109.13892.22827.28638.35986.418l11.31446,11.31348ZM480,120H464c-.17676,0-.34814.02783-.52295.03906A64.23874,64.23874,0,0,0,464,112a62.9643,62.9643,0,0,0-.52515-8.03931c.17554.01148.34742.03931.52515.03931h16Z"/><path d="M112,136a24,24,0,1,0-24-24A24.0275,24.0275,0,0,0,112,136Zm0-32a8,8,0,1,1-8,8A8.00917,8.00917,0,0,1,112,104Z"/></svg>
