<?xml version="1.0"?>
<svg xmlns="http://www.w3.org/2000/svg" id="outline" viewBox="0 0 512 512" width="512" height="512"><path d="M360,376a7.96627,7.96627,0,0,0,.57593,2.96973l-.00366.00146.04858.12128.01221.03052L375.38379,416l-14.75073,36.877-.01221.03052-.04858.12128.00366.00146A7.96627,7.96627,0,0,0,360,456v32a7.99977,7.99977,0,0,0,8,8h96a7.99977,7.99977,0,0,0,8-8V456a7.96627,7.96627,0,0,0-.57593-2.96973l.00366-.00146-.04858-.12128-.01221-.03052L456.61621,416l14.75073-36.877.01221-.03052.04858-.12128-.00366-.00146A7.96627,7.96627,0,0,0,472,376V356a48.22938,48.22938,0,0,0-19.2002-38.3999l-8.61523-6.46149A31.80094,31.80094,0,0,0,448,296V248a16.01833,16.01833,0,0,0-16-16H416a32.036,32.036,0,0,0-32,32v32a31.80094,31.80094,0,0,0,3.81543,15.13861l-8.61523,6.46149A48.22938,48.22938,0,0,0,360,356Zm40-80V280h32v16a16,16,0,0,1-32,0Zm52.18384,88-9.6001,24H389.41626l-9.6001-24Zm-62.76758,40h53.16748l9.6001,24H379.81616ZM456,480H376V464h80Zm0-124v12H424V326.98743a31.82791,31.82791,0,0,0,9.24561-4.05341l9.95459,7.46588A32.15413,32.15413,0,0,1,456,356ZM416,248h16v16H400A16.01833,16.01833,0,0,1,416,248ZM376,356a32.15413,32.15413,0,0,1,12.7998-25.6001l9.95459-7.46588A31.82791,31.82791,0,0,0,408,326.98743V368H376Z"/><path d="M48,496h96a7.99977,7.99977,0,0,0,8-8V456a7.96627,7.96627,0,0,0-.57593-2.96973l.00366-.00146-.04858-.12128-.01221-.03052L136.61621,416l14.75073-36.877.01221-.03052.04858-.12128-.00366-.00146A7.96627,7.96627,0,0,0,152,376V356a48.22938,48.22938,0,0,0-19.2002-38.3999l-8.61523-6.46149A31.80094,31.80094,0,0,0,128,296V264a32.036,32.036,0,0,0-32-32H80a16.01833,16.01833,0,0,0-16,16v48a31.80094,31.80094,0,0,0,3.81543,15.13861L59.2002,317.6001A48.22938,48.22938,0,0,0,40,356v20a7.96627,7.96627,0,0,0,.57593,2.96973l-.00366.00146.04858.12128.01221.03052L55.38379,416,40.63306,452.877l-.01221.03052-.04858.12128.00366.00146A7.96627,7.96627,0,0,0,40,456v32A7.99977,7.99977,0,0,0,48,496Zm88-16H56V464h80ZM80,296V280h32v16a16,16,0,0,1-32,0Zm52.18384,88-9.6001,24H69.41626l-9.6001-24ZM69.41626,424h53.16748l9.6001,24H59.81616ZM136,356v12H104V326.98743a31.82791,31.82791,0,0,0,9.24561-4.05341l9.95459,7.46588A32.15413,32.15413,0,0,1,136,356ZM80,248H96a16.01833,16.01833,0,0,1,16,16H80ZM56,356a32.15413,32.15413,0,0,1,12.7998-25.6001l9.95459-7.46588A31.82791,31.82791,0,0,0,88,326.98743V368H56Z"/><path d="M200,488a7.99977,7.99977,0,0,0,8,8h96a7.99977,7.99977,0,0,0,8-8V456a7.96627,7.96627,0,0,0-.57593-2.96973l.00366-.00146-.04858-.12128-.01221-.03052L296.61621,416l14.75073-36.877.01221-.03052.04858-.12128-.00366-.00146A7.96627,7.96627,0,0,0,312,376V356a48.22938,48.22938,0,0,0-19.2002-38.3999l-8.61523-6.46149A31.80094,31.80094,0,0,0,288,296V256a7.99943,7.99943,0,0,0-3.5625-6.65625L265.07861,236.438A26.42176,26.42176,0,0,0,224,258.42236V296a31.80094,31.80094,0,0,0,3.81543,15.13861l-8.61523,6.46149A48.22938,48.22938,0,0,0,200,356v20a7.96627,7.96627,0,0,0,.57593,2.96973l-.00366.00146.04858.12128.01221.03052L215.38379,416l-14.75073,36.877-.01221.03052-.04858.12128.00366.00146A7.96627,7.96627,0,0,0,200,456Zm96-8H216V464h80ZM240,296V280h32v16a16,16,0,0,1-32,0Zm52.18384,88-9.6001,24H229.41626l-9.6001-24Zm-62.76758,40h53.16748l9.6001,24H219.81616ZM296,356v12H264V326.98743a31.82791,31.82791,0,0,0,9.24561-4.05341l9.95459,7.46588A32.15413,32.15413,0,0,1,296,356Zm-56-97.57764a10.42227,10.42227,0,0,1,16.20361-8.67187L272,260.28125V264H240ZM216,356a32.15413,32.15413,0,0,1,12.7998-25.6001l9.95459-7.46588A31.82791,31.82791,0,0,0,248,326.98743V368H216Z"/><path d="M147.00244,286.24707l40,32a7.9999,7.9999,0,0,0,10.6543-.59033l16-16a7.99932,7.99932,0,0,0,.74316-10.45654L192,261.3335V236l23.24927-17.43719,3.094,3.09393A7.99877,7.99877,0,0,0,224,224h64a7.99877,7.99877,0,0,0,5.65674-2.34326l3.094-3.09393L320,236v25.3335l-22.3999,29.8667a7.99932,7.99932,0,0,0,.74316,10.45654l16,16a7.9999,7.9999,0,0,0,10.6543.59033l40-32A7.99951,7.99951,0,0,0,368,280V216a7.99951,7.99951,0,0,0-3.00244-6.24707L328,180.15491V160a7.99977,7.99977,0,0,0-8-8H300.94409l-13.78882-27.57764A7.99924,7.99924,0,0,0,280,120V24a7.99977,7.99977,0,0,0-8-8H240a7.99977,7.99977,0,0,0-8,8v96a7.99924,7.99924,0,0,0-7.15527,4.42236L211.05591,152H192a7.99977,7.99977,0,0,0-8,8v20.15491l-36.99756,29.598A7.99951,7.99951,0,0,0,144,216v64A7.99951,7.99951,0,0,0,147.00244,286.24707ZM352,276.15479l-31.40625,25.125-6.03076-6.03028L334.3999,268.7998A7.99948,7.99948,0,0,0,336,264V232a7.99927,7.99927,0,0,0-3.2002-6.3999L308.179,207.13446,320.59351,194.72,352,219.84521ZM248,32h16v88H248ZM236.94434,136h38.11132l8.00013,16H228.94421ZM200,168H312v12.68652L284.68652,208h-57.373L200,180.68652Zm-40,51.84521L191.40649,194.72,203.821,207.13446,179.2002,225.6001A7.99927,7.99927,0,0,0,176,232v32a7.99948,7.99948,0,0,0,1.6001,4.7998L197.437,295.24951l-6.03076,6.03028L160,276.15479Z"/></svg>
